<?xml version="1.0" encoding="UTF-8"?> <svg xmlns:dc="http://purl.org/dc/elements/1.1/" xmlns:cc="http://creativecommons.org/ns#" xmlns:rdf="http://www.w3.org/1999/02/22-rdf-syntax-ns#" xmlns="http://www.w3.org/2000/svg" xmlns:xlink="http://www.w3.org/1999/xlink" version="1.1" id="Layer_1" x="0px" y="0px" viewBox="0 0 202 202.2" style="enable-background:new 0 0 202 202.2;" xml:space="preserve"> <style type="text/css"> .st0{fill:#202033;} .st1{fill:#FFFFFF;} </style> <g transform="matrix(.5 0 0 .5 1.072 1.2853)"> <path class="st0" d="M200,0C89.1,0,0,89.4,0,200.2s89.1,200.2,200,200.2c110.9,0,200-89.4,200-200.2S311,0,200,0z"></path> <g> <path class="st1" d="M68.9,137.5c-34.8,0-62.7,28-62.7,62.8C6.2,235,34.1,263,68.9,263c21.4,0,29.7-15.1,29.7-15.1v13.7h33v-61.4 C131.6,165.5,103.7,137.5,68.9,137.5L68.9,137.5z M68.9,170.3c16.6,0,29.9,13.4,29.9,30s-13.3,30-29.9,30S39,216.8,39,200.3 S52.3,170.3,68.9,170.3z"></path> <path class="st1" d="M139.6,94.2v106c0,34.8,27.9,62.8,62.7,62.8S265,235,265,200.3c0-34.8-27.9-62.8-62.7-62.8 c-21.4,0-29.7,15.1-29.7,15.1V94.2L139.6,94.2z M202.3,170.3c16.6,0,29.9,13.4,29.9,30s-13.3,30-29.9,30 c-16.6,0-29.9-13.4-29.9-30S185.7,170.3,202.3,170.3z"></path> <path class="st1" d="M333.1,137.5c-34.8,0-62.7,28-62.7,62.8c0,34.8,27.9,62.8,62.7,62.8c30,0,55-20.9,61.2-49h-34.7 c-5,9.6-14.9,16.1-26.5,16.1c-16.6,0-29.9-13.4-29.9-30s13.3-30,29.9-30c11.6,0,21.6,6.6,26.6,16.2h34.6 C388,158.4,363.1,137.5,333.1,137.5L333.1,137.5z"></path> </g> </g> </svg> 